<svg xmlns="http://www.w3.org/2000/svg" viewBox="0 0 28 28">
  <path d="M10 29v1H2V29a3.992 3.992 0 012.35-3.635 2.5 2.5 0 113.3 0A3.992 3.992 0 0110 29zM20 29v1H12V29a3.992 3.992 0 012.35-3.635 2.5 2.5 0 113.3 0A3.992 3.992 0 0120 29zM30 29v1H22V29a3.992 3.992 0 012.35-3.635 2.5 2.5 0 113.3 0A3.992 3.992 0 0130 29z" transform="translate(-2 -2)" fill="currentColor"/>
  <path d="M4981.5-739a.5.5,0,0,1-.5-.5v-16a.5.5,0,0,1,.5-.5h27a.5.5,0,0,1,.5.5v16a.5.5,0,0,1-.5.5Z" transform="translate(-4981 756)" fill="currentColor"/>
</svg>
