<?xml version="1.0" encoding="UTF-8" standalone="no"?><!DOCTYPE svg PUBLIC "-//W3C//DTD SVG 1.1//EN" "http://www.w3.org/Graphics/SVG/1.1/DTD/svg11.dtd">
<svg width="100%" height="100%" viewBox="0 0 66 71" version="1.1"
  xmlns="http://www.w3.org/2000/svg"
  xmlns:xlink="http://www.w3.org/1999/xlink" xml:space="preserve"
  xmlns:serif="http://www.serif.com/" style="fill-rule:evenodd;clip-rule:evenodd;stroke-linejoin:round;stroke-miterlimit:2;">
  <path d="M62.433,39.721l-58.512,-0l0,-30.234l58.512,-0l0,30.234Zm-0.425,6.979l-5.108,-0l0,-4.729l5.108,-0l-0,4.729Zm-7.566,-0l-5.109,-0l-0,-4.729l5.109,-0l-0,4.729Zm-7.567,-0l-5.108,-0l-0,-4.729l5.108,-0l-0,4.729Zm-7.567,-0l-5.108,-0l-0,-4.729l5.108,-0l-0,4.729Zm-7.571,-0l-5.108,-0l-0,-4.729l5.108,-0l-0,4.729Zm-7.566,-0l-5.109,-0l-0,-4.729l5.109,-0l-0,4.729Zm-7.571,-0l-5.108,-0l-0,-4.729l5.108,-0l-0,4.729Zm-7.567,-0l-5.108,-0l-0,-4.729l5.108,-0l-0,4.729Zm-5.108,-43.883l5.108,-0l-0,4.729l-5.108,-0l-0,-4.729Zm7.567,-0l5.108,-0l-0,4.729l-5.108,-0l-0,-4.729Zm7.566,-0l5.109,-0l-0,4.729l-5.109,-0l-0,-4.729Zm7.571,-0l5.108,-0l-0,4.729l-5.108,-0l-0,-4.729Zm7.567,-0l5.108,-0l-0,4.729l-5.108,-0l-0,-4.729Zm7.566,-0l5.109,-0l-0,4.729l-5.109,-0l-0,-4.729Zm7.571,-0l5.109,-0l-0,4.729l-5.109,-0l-0,-4.729Zm7.567,-0l5.108,-0l-0,4.729l-5.108,-0l-0,-4.729Zm4.958,-2.442l-57.775,-0c-2.037,-0 -3.708,1.671 -3.708,3.708l-0,41.046c-0,2.042 1.671,3.713 3.708,3.713l57.775,-0c2.038,-0 3.709,-1.671 3.709,-3.713l-0,-41.046c-0,-2.037 -1.671,-3.708 -3.709,-3.708" fill="currentColor" style="fill-rule:nonzero;"/>
  <path d="M28.171,17.152l10.992,6.346l-10.992,6.35l0,-12.696Zm4.187,16.646c5.713,0 10.346,-4.629 10.346,-10.346c0,-5.712 -4.633,-10.346 -10.346,-10.346c-5.716,0 -10.345,4.634 -10.345,10.346c0,5.717 4.629,10.346 10.345,10.346" fill="currentColor" style="fill-rule:nonzero;"/>
  <path d="M4.555,62.329c0,-0.984 0.186,-1.895 0.557,-2.735c0.37,-0.84 0.873,-1.578 1.505,-2.21c0.635,-0.631 1.37,-1.13 2.21,-1.49c0.843,-0.359 1.743,-0.541 2.704,-0.541c0.984,0 1.892,0.182 2.735,0.541c0.84,0.36 1.578,0.859 2.21,1.49c0.631,0.632 1.127,1.37 1.49,2.21c0.359,0.84 0.541,1.751 0.541,2.735c-0,0.961 -0.182,1.861 -0.541,2.701c-0.363,0.843 -0.859,1.578 -1.49,2.213c-0.632,0.632 -1.37,1.135 -2.21,1.505c-0.843,0.371 -1.751,0.557 -2.735,0.557c-0.961,0 -1.861,-0.186 -2.704,-0.557c-0.84,-0.37 -1.575,-0.873 -2.21,-1.505c-0.632,-0.635 -1.135,-1.37 -1.505,-2.213c-0.371,-0.84 -0.557,-1.74 -0.557,-2.701" fill="currentColor" style="fill-rule:nonzero;"/>
  <path d="M28.943,61.309c0.7,-0 1.23,-0.158 1.58,-0.466c0.35,-0.313 0.525,-0.821 0.525,-1.521c0,-0.675 -0.175,-1.167 -0.525,-1.471c-0.35,-0.308 -0.88,-0.463 -1.58,-0.463l-3.354,0l0,3.921l3.354,0Zm1.092,-6.296c0.625,0 1.188,0.1 1.688,0.3c0.5,0.205 0.929,0.48 1.283,0.83c0.358,0.35 0.633,0.758 0.821,1.216c0.187,0.463 0.283,0.963 0.283,1.492c0,0.821 -0.171,1.529 -0.517,2.125c-0.345,0.6 -0.908,1.054 -1.687,1.367l0,0.037c0.379,0.108 0.692,0.263 0.937,0.479c0.246,0.213 0.446,0.467 0.605,0.759c0.154,0.295 0.27,0.616 0.341,0.966c0.071,0.35 0.117,0.7 0.146,1.054c0.013,0.221 0.025,0.48 0.038,0.78c0.012,0.3 0.037,0.604 0.07,0.916c0.03,0.313 0.084,0.609 0.155,0.888c0.07,0.279 0.179,0.516 0.32,0.712l-3.058,0c-0.171,-0.441 -0.275,-0.971 -0.312,-1.579c-0.042,-0.612 -0.1,-1.196 -0.175,-1.754c-0.105,-0.729 -0.325,-1.263 -0.663,-1.6c-0.342,-0.338 -0.892,-0.508 -1.658,-0.508l-3.063,0l0,5.441l-3.062,0l0,-13.921l7.508,0Z" fill="currentColor" style="fill-rule:nonzero;"/>
  <path d="M47.017,55.012l0,2.571l-7.35,0l0,2.983l6.746,0l0,2.379l-6.746,0l0,3.413l7.509,0l0,2.575l-10.571,0l0,-13.921l10.412,0Z" fill="currentColor" style="fill-rule:nonzero;"/>
  <path d="M58.17,58.726c-0.184,-0.291 -0.409,-0.55 -0.684,-0.771c-0.271,-0.22 -0.583,-0.391 -0.925,-0.516c-0.346,-0.125 -0.704,-0.188 -1.083,-0.188c-0.688,0 -1.275,0.138 -1.754,0.404c-0.479,0.263 -0.871,0.621 -1.171,1.071c-0.3,0.45 -0.517,0.959 -0.65,1.529c-0.138,0.571 -0.208,1.163 -0.208,1.775c0,0.584 0.07,1.155 0.208,1.709c0.133,0.55 0.35,1.046 0.65,1.491c0.3,0.442 0.692,0.792 1.171,1.063c0.479,0.267 1.066,0.396 1.754,0.396c0.937,0 1.667,-0.284 2.196,-0.854c0.525,-0.575 0.846,-1.33 0.962,-2.263l2.967,0c-0.079,0.871 -0.283,1.658 -0.608,2.358c-0.321,0.705 -0.75,1.3 -1.284,1.792c-0.533,0.496 -1.158,0.875 -1.875,1.133c-0.712,0.259 -1.5,0.388 -2.358,0.388c-1.067,0 -2.025,-0.183 -2.875,-0.554c-0.85,-0.371 -1.571,-0.879 -2.154,-1.529c-0.584,-0.65 -1.034,-1.413 -1.346,-2.292c-0.313,-0.879 -0.467,-1.825 -0.467,-2.838c0,-1.041 0.154,-2.004 0.467,-2.895c0.312,-0.888 0.762,-1.667 1.346,-2.33c0.583,-0.662 1.304,-1.183 2.154,-1.558c0.85,-0.379 1.808,-0.567 2.875,-0.567c0.767,0 1.492,0.113 2.175,0.334c0.683,0.221 1.292,0.541 1.833,0.962c0.538,0.421 0.984,0.946 1.334,1.571c0.354,0.625 0.575,1.338 0.666,2.146l-2.966,0c-0.05,-0.354 -0.167,-0.675 -0.35,-0.967" fill="currentColor" style="fill-rule:nonzero;"/>
</svg>
